# xmcd
#
# Track frame offsets: 
#        150
#        19227
#        39315
#        59552
#        63971
#        78341
#        84659
#        101265
#        104202
#        128182
#        136440
#        151288
#        158533
#        173190
#        178163
#        193456
#        212572
#        228351
#        232501
#        242584
#        244537
#
# Disc length: 3438 seconds
#
# Revision: 7
# Processed by: cddbd v1.5.2PL0 Copyright (c) Steve Scherf et al.
# Submitted via: ExactAudioCopy v1.0b3
#
DISCID=130d6c15
DTITLE=Bob Dylan - On The Crest Of The Air Waves
DYEAR=1962
DGENRE=Folk
TTITLE0=(I Heard That) Lonesome Whistle
TTITLE1=(Conversation)
TTITLE2=Fixin' To Die
TTITLE3=(Conversation)
TTITLE4=Smokestack Lightning
TTITLE5=(Conversation)
TTITLE6=Hard Travelin'
TTITLE7=(Conversation)
TTITLE8=The Death Of Emmett Till
TTITLE9=(Conversation)
TTITLE10=Standing On the Highway
TTITLE11=(Conversation)
TTITLE12=Roll On, John
TTITLE13=(Conversation)
TTITLE14=Stealin' Stealin'
TTITLE15=(Conversation)
TTITLE16=Makes A Long Time Man Feel Bad
TTITLE17=(Conversation)
TTITLE18=Baby Please Don't Go
TTITLE19=(Conversation)
TTITLE20=Hard Times In New York Town
EXTD=
EXTT0=
EXTT1=
EXTT2=
EXTT3=
EXTT4=
EXTT5=
EXTT6=
EXTT7=
EXTT8=
EXTT9=
EXTT10=
EXTT11=
EXTT12=
EXTT13=
EXTT14=
EXTT15=
EXTT16=
EXTT17=
EXTT18=
EXTT19=
EXTT20=
PLAYORDER=
